<?xml version="1.0" standalone="no"?>
<!DOCTYPE svg PUBLIC "-//W3C//DTD SVG 20010904//EN"
 "http://www.w3.org/TR/2001/REC-SVG-20010904/DTD/svg10.dtd">
<svg version="1.0" xmlns="http://www.w3.org/2000/svg"
 width="250.000000pt" height="250.000000pt" viewBox="0 0 250.000000 250.000000"
 preserveAspectRatio="xMidYMid meet">

<g transform="translate(0.000000,250.000000) scale(0.100000,-0.100000)"
fill="#000000" stroke="none">
<path d="M0 1250 l0 -1250 1250 0 1250 0 0 1250 0 1250 -1250 0 -1250 0 0
-1250z m320 1080 l0 -150 155 0 155 0 0 150 0 150 155 0 155 0 0 -150 0 -150
155 0 155 0 0 150 0 150 155 0 155 0 0 -150 0 -150 155 0 155 0 0 150 0 150
155 0 155 0 0 -150 0 -150 150 0 150 0 0 -155 0 -155 -150 0 -150 0 0 -155 0
-155 150 0 150 0 0 -155 0 -155 -150 0 -150 0 0 -155 0 -155 150 0 150 0 0
-155 0 -155 -150 0 -150 0 0 -155 0 -155 150 0 150 0 0 -150 0 -150 -150 0
-150 0 0 150 0 150 -155 0 -155 0 0 -150 0 -150 -155 0 -155 0 0 150 0 150
-155 0 -155 0 0 -150 0 -150 -155 0 -155 0 0 150 0 150 -155 0 -155 0 0 -150
0 -150 -155 0 -155 0 0 150 0 150 -150 0 -150 0 0 155 0 155 150 0 150 0 0
155 0 155 -150 0 -150 0 0 155 0 155 150 0 150 0 0 155 0 155 -150 0 -150 0 0
155 0 155 150 0 150 0 0 155 0 155 -150 0 -150 0 0 150 0 150 150 0 150 0 0
-150z"/>
<path d="M630 2025 l0 -155 -155 0 -155 0 0 -155 0 -155 155 0 155 0 0 -155 0
-155 -155 0 -155 0 0 -155 0 -155 155 0 155 0 0 -155 0 -155 -155 0 -155 0 0
-155 0 -155 155 0 155 0 0 155 0 155 155 0 155 0 0 -155 0 -155 155 0 155 0 0
155 0 155 155 0 155 0 0 -155 0 -155 155 0 155 0 0 155 0 155 155 0 155 0 0
155 0 155 -155 0 -155 0 0 155 0 155 155 0 155 0 0 155 0 155 -155 0 -155 0 0
155 0 155 155 0 155 0 0 155 0 155 -155 0 -155 0 0 -155 0 -155 -155 0 -155 0
0 155 0 155 -155 0 -155 0 0 -155 0 -155 -155 0 -155 0 0 155 0 155 -155 0
-155 0 0 -155z m310 -310 l0 -155 155 0 155 0 0 155 0 155 155 0 155 0 0 -155
0 -155 155 0 155 0 0 -155 0 -155 -155 0 -155 0 0 -155 0 -155 155 0 155 0 0
-155 0 -155 -155 0 -155 0 0 155 0 155 -155 0 -155 0 0 -155 0 -155 -155 0
-155 0 0 155 0 155 -155 0 -155 0 0 155 0 155 155 0 155 0 0 155 0 155 -155 0
-155 0 0 155 0 155 155 0 155 0 0 -155z"/>
<path d="M1250 1405 l0 -155 -155 0 -155 0 0 -155 0 -155 155 0 155 0 0 155 0
155 155 0 155 0 0 155 0 155 -155 0 -155 0 0 -155z"/>
</g>
</svg>
